# AST/ASF file generated using VICON BodyLanguage
# -----------------------------------------------
:version 1.10
:name VICON
:units
  mass 1.0
  length 0.45
  angle deg
:documentation
   .ast/.asf automatically generated from VICON data using
   VICON BodyBuilder and BodyLanguage model FoxedUp or BRILLIANT.MOD
:root
   order TX TY TZ RX RY RZ
   axis XYZ
   position 0 0 0  
   orientation 0 0 0 
:bonedata
  begin
     id 1 
     name lhipjoint
     direction 0.692814 -0.645514 0.321437 
     length 2.38754 
     axis 0 0 0  XYZ
  end
  begin
     id 2 
     name lfemur
     direction 0.34202 -0.939693 0  
     length 6.41921  
     axis 0 0 20  XYZ
    dof rx ry rz
    limits (-160.0 20.0)
           (-70.0 70.0)
           (-60.0 70.0)
  end
  begin
     id 3 
     name ltibia
     direction 0.34202 -0.939693 0   
     length 6.98247   
     axis 0 0 20   XYZ
    dof rx
    limits (-10.0 170.0)
  end
  begin
     id 4 
     name lfoot
     direction 0.0947186 -0.260237 0.960888   
     length 1.83034   
     axis -90 7.62852e-016 20   XYZ
    dof rx rz
    limits (-45.0 90.0)
           (-70.0 20.0)
  end
  begin
     id 5 
     name ltoes
     direction 1.53538e-011 -4.21952e-011 1   
     length 0.920499   
     axis -90 7.62852e-016 20   XYZ
    dof rx
    limits (-90.0 20.0)
  end
  begin
     id 6 
     name rhipjoint
     direction -0.631686 -0.693949 0.345555   
     length 2.2209  
     axis 0 0 0  XYZ 
  end
  begin
     id 7 
     name rfemur
     direction -0.34202 -0.939693 0   
     length 6.49542   
     axis 0 0 -20   XYZ
    dof rx ry rz
    limits (-160.0 20.0)
           (-70.0 70.0)
           (-70.0 60.0)
  end
  begin
     id 8 
     name rtibia
     direction -0.34202 -0.939693 0   
     length 7.21712   
     axis 0 0 -20   XYZ
    dof rx
    limits (-10.0 170.0)
 end
 begin
     id 9 
     name rfoot
     direction -0.0825378 -0.226771 0.970444   
     length 1.89724  
     axis -90 -7.62852e-016 -20   XYZ
    dof rx rz
    limits (-45.0 90.0)
           (-20.0 70.0)
  end
  begin
     id 10 
     name rtoes
     direction -1.53515e-011 -4.22016e-011 1   
     length 0.955868   
     axis -90 -7.62852e-016 -20   XYZ
    dof rx
    limits (-90.0 20.0)
  end
  begin
     id 11 
     name lowerback
     direction -0.0104711 0.984802 -0.173368   
     length 1.84931   
     axis 0 0 0   XYZ
    dof rx ry rz
    limits (-20.0 45.0)
           (-30.0 30.0)
           (-30.0 30.0)
  end
  begin
     id 12 
     name upperback
     direction -0.00286433 0.999996 -0.000382853   
     length 1.85768   
     axis 0 0 0   XYZ
    dof rx ry rz
    limits (-20.0 45.0)
           (-30.0 30.0)
           (-30.0 30.0)
  end
  begin
     id 13 
     name thorax
     direction 0.00167534 0.996793 0.0800069   
     length 1.92   
     axis 0 0 0   XYZ
    dof rx ry rz
    limits (-20.0 45.0)
           (-30.0 30.0)
           (-30.0 30.0)
  end
  begin
     id 14 
     name lowerneck
     direction -0.0672491 0.995415 0.068018   
     length 1.58923   
     axis 0 0 0   XYZ
    dof rx ry rz
    limits (-20.0 45.0)
           (-30.0 30.0)
           (-30.0 30.0)
  end
  begin
     id 15 
     name upperneck
     direction 0.0958019 0.982476 -0.159884   
     length 1.60189   
     axis 0 0 0   XYZ
    dof rx ry rz
    limits (-20.0 45.0)
           (-30.0 30.0)
           (-30.0 30.0)
  end
  begin
     id 16
     name head
     direction 0.032989 0.997338 -0.0650226  
     length 1.61681  
     axis 0 0 0   XYZ
    dof rx ry rz
    limits (-20.0 45.0)
           (-30.0 30.0)
           (-30.0 30.0)
  end
  begin
     id 17 
     name lclavicle
     direction 0.954279 0.298875 -0.00496069  
     length 2.99449  
     axis 0 0 0   XYZ
    dof ry rz
    limits (-20.0 10.0)
           (0.0 20.0)
  end
  begin
     id 18 
     name lhumerus
     direction 1 -4.48985e-011 -4.2057e-027   
     length 4.79185   
     axis 180 -30 -90   XYZ
    dof rx ry rz
    limits (-60.0 90.0)
           (-90.0 90.0)
           (-90.0 90.0)
  end
  begin
     id 19
     name lradius
     direction 1 -4.48945e-011 1.15441e-028   
     length 2.65553   
     axis 180 -30 -90   XYZ
    dof rx
    limits (-10.0 170.0)
  end
  begin
     id 20
     name lwrist
     direction 1 -4.4899e-011 4.8894e-028   
     length 1.32777   
     axis -2.56392e-016 90 90   XYZ
    dof ry
    limits (-180.0 0.0)
 end
  begin
     id 21 
     name lhand
     direction 1 -4.48908e-011 9.7788e-028   
     length 0.743904   
     axis -6.23971e-016 90 90   XYZ
    dof rx rz
    limits (-90.0 90.0)
           (-45.0 45.0)
  end
  begin
     id 22 
     name lfingers
     direction 1 -4.49068e-011 1.95576e-027   
     length 0.599754   
     axis -1.24794e-015 90 90   XYZ
    dof rx
    limits (0.0 90.0)
  end
  begin
     id 23
     name lthumb
     direction 0.707107 -6.34883e-011 0.707107   
     length 0.861131   
     axis -90 45 2.85299e-015   XYZ
    dof rx rz
    limits (-45.0 45.0)
           (-45.0 45.0)
  end
  begin
     id 24 
     name rclavicle
     direction -0.957921 0.286916 0.00811568   
     length 3.06817  
     axis 0 0 0   XYZ 
    dof ry rz
    limits (-10.0 20.0)
           (-20.0 0.0)
  end
  begin
     id 25 
     name rhumerus
     direction -1 -4.48971e-011 -3.07942e-027  
     length 4.77254   
     axis 180 30 90   XYZ
    dof rx ry rz
    limits (-90.0 60.0)
           (-90.0 90.0)
           (-90.0 90.0)
  end
  begin
     id 26 
     name rradius
     direction -1 -4.48957e-011 -9.6815e-028   
     length 2.75995   
     axis 180 30 90   XYZ
    dof rx
    limits (-10.0 170.0)
  end
  begin
     id 27 
     name rwrist
     direction -1 -4.48979e-011 4.8894e-028   
     length 1.37997   
     axis -2.56392e-016 -90 -90   XYZ
    dof ry
    limits (-180.0 0.0)
  end
  begin
     id 28
     name rhand
     direction -1 -4.48906e-011 9.7788e-028   
     length 0.701619   
     axis -6.23971e-016 -90 -90   XYZ
    dof rx rz
    limits (-90.0 90.0)
           (-45.0 45.0)
  end
  begin
     id 29
     name rfingers
     direction -1 -4.49018e-011 1.95576e-027   
     length 0.565663   
     axis -1.24794e-015 -90 -90   XYZ
    dof rx
    limits (0.0 90.0)
  end
  begin
     id 30
     name rthumb
     direction -0.707107 -6.34881e-011 0.707107   
     length 0.812183   
     axis -90 -45 -2.85299e-015   XYZ
    dof rx rz
    limits (-45.0 45.0)
           (-45.0 45.0)
  end
:hierarchy
  begin
    root lhipjoint rhipjoint lowerback
    lhipjoint lfemur
    lfemur ltibia
    ltibia lfoot
    lfoot ltoes
    rhipjoint rfemur
    rfemur rtibia
    rtibia rfoot
    rfoot rtoes
    lowerback upperback
    upperback thorax
    thorax lowerneck lclavicle rclavicle
    lowerneck upperneck
    upperneck head
    lclavicle lhumerus
    lhumerus lradius
    lradius lwrist
    lwrist lhand lthumb
    lhand lfingers
    rclavicle rhumerus
    rhumerus rradius
    rradius rwrist
    rwrist rhand rthumb
    rhand rfingers
  end

#!OML:ASF F:\VICON\USERDATA\INSTALL\rory3\rory3.ASF
:FULLY-SPECIFIED
:DEGREES
141
root 0.447228 16.1057 0.0777934 -2.38817 -2.46857 -1.1963
lowerback 8.43573 0.400518 -1.74934
upperback -3.32414 0.320817 -0.112313
thorax -8.26601 0.245744 0.815941
lowerneck -10.1685 -5.3957 -10.8984
upperneck 22.1698 -7.34322 8.08481
head 9.34719 -3.55276 3.77754
rclavicle 2.83268e-015 -3.97569e-015
rhumerus -44.5996 17.0946 -91.7655
rradius 71.4294
rwrist 14.8732
rhand -6.24932 14.5915
rfingers 7.12502
rthumb 19.5927 -14.4412
lclavicle 2.83268e-015 -3.97569e-015
lhumerus -44.4783 -19.1431 88.3913
lradius 73.8897
lwrist 10.2768
lhand -10.4845 15.061
lfingers 7.12502
lthumb 15.517 44.4584
rfemur 4.33541 12.5929 18.3746
rtibia 11.2341
rfoot -9.93378 -12.2232
rtoes -5.19461
lfemur 11.0474 -10.877 -17.8551
ltibia 3.02153e-014
lfoot -5.47431 11.1944
ltoes -10.3321
142
root 0.448164 16.1099 0.0708535 -2.29986 -2.45058 -1.29887
lowerback 8.40162 0.403887 -1.58843
upperback -3.38898 0.346718 -0.0825854
thorax -8.3156 0.251433 0.752752
lowerneck -10.044 -5.35519 -10.861
upperneck 22.1861 -7.29378 8.02879
head 9.32028 -3.53525 3.76057
rclavicle -3.97569e-015 9.14409e-015
rhumerus -44.2263 17.0769 -91.1955
rradius 72.8125
rwrist 14.9876
rhand -6.39261 14.6038
rfingers 7.12502
rthumb 19.4549 -14.4429
lclavicle -3.97569e-015 9.14409e-015
lhumerus -44.0153 -18.9876 87.7932
lradius 74.906
lwrist 10.1211
lhand -10.7663 14.659
lfingers 7.12502
lthumb 15.2456 44.0772
rfemur 4.28197 12.7396 18.4968
rtibia 11.1305
rfoot -9.8781 -12.4225
rtoes -5.01611
lfemur 10.9166 -10.8901 -17.7231
ltibia 3.81667e-014
lfoot -5.4623 11.1835
ltoes -10.267
143
root 0.449316 16.113 0.0680604 -2.22092 -2.34029 -1.40943
lowerback 8.29908 0.386837 -1.4043
upperback -3.43055 0.349556 -0.0504163
thorax -8.2993 0.244071 0.683076
lowerneck -9.91516 -5.34179 -10.8994
upperneck 22.2115 -7.27968 8.01802
head 9.3046 -3.53614 3.76796
rclavicle 1.40889e-014 -1.47101e-014
rhumerus -43.8341 17.029 -90.6111
rradius 74.075
rwrist 15.4269
rhand -6.64634 14.6455
rfingers 7.12502
rthumb 19.2109 -14.4257
lclavicle 1.40889e-014 -1.47101e-014
lhumerus -43.4776 -18.9132 87.2619
lradius 75.7941
lwrist 9.96785
lhand -11.0424 14.4008
lfingers 7.12502
lthumb 14.9796 43.8391
rfemur 4.27724 12.8278 18.6309
rtibia 11.0142
rfoot -9.86166 -12.6714
rtoes -4.57032
lfemur 10.8015 -10.9954 -17.5898
ltibia 3.02153e-014
lfoot -5.40202 11.1693
ltoes -10.219
144
root 0.451106 16.1161 0.065824 -2.13459 -2.1399 -1.31706
lowerback 8.18641 0.352622 -1.41646
upperback -3.48602 0.301859 -0.0745933
thorax -8.29231 0.220997 0.671965
lowerneck -9.76884 -5.32034 -10.9548
upperneck 22.2698 -7.25657 8.01402
head 9.29702 -3.53415 3.78253
rclavicle -1.89591e-014 9.93923e-015
rhumerus -43.4423 16.9707 -90.0505
rradius 75.1655
rwrist 16.0166
rhand -7.26783 14.8207
rfingers 7.12502
rthumb 18.6132 -14.3088
lclavicle -1.89591e-014 9.93923e-015
lhumerus -42.8867 -18.8421 86.7726
lradius 76.5314
lwrist 9.83315
lhand -11.284 14.6471
lfingers 7.12502
lthumb 14.7469 44.1025
rfemur 4.29068 12.8281 18.5335
rtibia 10.8633
rfoot -9.80365 -12.8912
rtoes -4.63678
lfemur 10.636 -11.1794 -17.6771
ltibia 2.70347e-014
lfoot -5.27533 11.1536
ltoes -10.0352
145
root 0.452392 16.121 0.0600954 -1.98046 -1.82032 -1.22403
lowerback 8.08074 0.267933 -1.4435
upperback -3.57613 0.184436 -0.0983715
thorax -8.3253 0.165175 0.679982
lowerneck -9.62663 -5.29332 -10.9412
upperneck 22.3019 -7.22589 7.96352
head 9.27567 -3.5273 3.76964
rclavicle 2.18663e-015 7.95139e-016
rhumerus -43.0393 16.9503 -89.5047
rradius 76.1868
rwrist 16.5121
rhand -7.63588 14.8804
rfingers 7.12502
rthumb 18.2592 -14.2826
lclavicle 2.18663e-015 7.95139e-016
lhumerus -42.2973 -18.718 86.2635
lradius 77.1573
lwrist 9.53369
lhand -11.4102 14.7407
lfingers 7.12502
lthumb 14.6253 44.2049
rfemur 4.25057 12.7927 18.4268
rtibia 10.695
rfoot -9.76747 -13.1547
rtoes -4.36797
lfemur 10.3613 -11.4803 -17.7525
ltibia 2.06736e-014
lfoot -5.15128 11.1787
ltoes -10.0227
146
root 0.453044 16.1252 0.0491061 -1.84894 -1.46994 -1.22667
lowerback 8.05979 0.157512 -1.38389
upperback -3.6492 0.0439839 -0.0866224
thorax -8.38855 0.0946286 0.680103
lowerneck -9.61857 -5.26953 -10.9513
upperneck 22.4221 -7.19215 7.93709
head 9.31187 -3.51566 3.76812
rclavicle -7.65321e-015 2.38542e-015
rhumerus -42.5711 17.0148 -88.9831
rradius 77.1311
rwrist 16.892
rhand -7.67931 14.8866
rfingers 7.12502
rthumb 18.2174 -14.2803
lclavicle -7.65321e-015 2.38542e-015
lhumerus -41.6662 -18.5399 85.7144
lradius 77.7808
lwrist 9.29194
lhand -11.6203 14.6198
lfingers 7.12502
lthumb 14.4229 44.0986
rfemur 4.20328 12.6763 18.4107
rtibia 10.565
rfoot -9.77719 -13.3409
rtoes -3.76114
lfemur 10.0966 -11.8183 -17.7228
ltibia -1.43125e-014
lfoot -5.07785 11.2007
ltoes -10.3824
147
root 0.455952 16.1275 0.0389907 -1.75237 -1.07325 -1.26014
lowerback 8.0388 0.0360955 -1.22746
upperback -3.68923 -0.101499 -0.0974208
thorax -8.41612 0.0151592 0.60276
lowerneck -9.68043 -5.26307 -10.9536
upperneck 22.578 -7.18614 7.93987
head 9.37751 -3.51188 3.77129
rclavicle 9.39258e-015 -6.36111e-015
rhumerus -42.1186 17.061 -88.502
rradius 77.9716
rwrist 17.2126
rhand -7.85499 14.9553
rfingers 7.12502
rthumb 18.0484 -14.2273
lclavicle 9.39258e-015 -6.36111e-015
lhumerus -41.0401 -18.3856 85.1626
lradius 78.3922
lwrist 9.11012
lhand -11.9213 15.3145
lfingers 7.12502
lthumb 14.1328 44.8138
rfemur 4.22883 12.4324 18.4122
rtibia 10.3721
rfoot -9.76361 -13.4729
rtoes -3.63879
lfemur 9.87167 -12.2036 -17.6784
ltibia 1.59028e-015
lfoot -5.01256 11.207
ltoes -10.6399
148
root 0.459546 16.1296 0.0352807 -1.66462 -0.799114 -1.22301
lowerback 7.93934 -0.0303936 -1.15287
upperback -3.73214 -0.183598 -0.131541
thorax -8.4029 -0.0299517 0.536961
lowerneck -9.6621 -5.26128 -10.8927
upperneck 22.6796 -7.18959 7.88242
head 9.40535 -3.51492 3.74221
rclavicle 2.68359e-015 -4.77083e-015
rhumerus -41.7636 17.0151 -88.0856
rradius 78.7083
rwrist 17.5546
rhand -8.04537 15.0734
rfingers 7.12502
rthumb 17.8652 -14.1261
lclavicle 2.68359e-015 -4.77083e-015
lhumerus -40.4892 -18.3102 84.6401
lradius 78.9179
lwrist 9.05691
lhand -12.2432 15.9996
lfingers 7.12502
lthumb 13.8226 45.5204
rfemur 4.28536 12.2222 18.3314
rtibia 10.1216
rfoot -9.61564 -13.5389
rtoes -3.97522
lfemur 9.70091 -12.4627 -17.7192
ltibia -2.38542e-014
lfoot -4.94063 11.2439
ltoes -10.7472
149
root 0.462261 16.1308 0.0338632 -1.64428 -0.743339 -1.21976
lowerback 7.9108 -0.0333831 -1.08067
upperback -3.77599 -0.18109 -0.154551
thorax -8.43384 -0.0331349 0.471602
lowerneck -9.65224 -5.23929 -10.7843
upperneck 22.808 -7.17565 7.82944
head 9.44033 -3.50535 3.70914
rclavicle -1.59028e-015 -2.78299e-015
rhumerus -41.4407 17.0073 -87.7203
rradius 79.3644
rwrist 17.7798
rhand -8.12089 15.1117
rfingers 7.12502
rthumb 17.7925 -14.0943
lclavicle -1.59028e-015 -2.78299e-015
lhumerus -39.9483 -18.2441 84.139
lradius 79.2052
lwrist 9.08005
lhand -12.9235 15.708
lfingers 7.12502
lthumb 13.1669 45.2723
rfemur 4.38167 12.1926 18.3012
rtibia 9.89963
rfoot -9.45675 -13.5525
rtoes -4.28916
lfemur 9.66232 -12.5082 -17.7308
ltibia 1.59028e-015
lfoot -4.90988 11.2536
ltoes -11.1069
150
root 0.465127 16.1323 0.0320839 -1.66432 -0.699062 -1.2549
lowerback 7.92319 -0.0400385 -0.962514
upperback -3.81781 -0.176712 -0.151931
thorax -8.48655 -0.0371059 0.407324
lowerneck -9.6179 -5.21353 -10.8213
upperneck 22.9425 -7.15767 7.88479
head 9.48241 -3.49606 3.73992
rclavicle -5.31749e-015 3.97569e-015
rhumerus -41.1872 17.1171 -87.3431
rradius 80.0119
rwrist 17.8031
rhand -8.30197 15.1051
rfingers 7.12502
rthumb 17.6183 -14.1166
lclavicle -5.31749e-015 3.97569e-015
lhumerus -39.3882 -18.0505 83.6819
lradius 79.234
lwrist 8.92671
lhand -13.4797 15.2379
lfingers 7.12502
lthumb 12.6308 44.836
rfemur 4.54663 12.1741 18.3233
rtibia 9.63438
rfoot -9.40266 -13.5301
rtoes -3.83432
lfemur 9.66893 -12.5456 -17.7077
ltibia 2.06736e-014
lfoot -4.88937 11.2409
ltoes -11.2974
151
root 0.469275 16.1328 0.0304498 -1.67494 -0.524845 -1.22921
lowerback 7.90929 -0.101714 -0.886731
upperback -3.84987 -0.251953 -0.16711
thorax -8.51232 -0.0782842 0.360024
lowerneck -9.63147 -5.19226 -10.879
upperneck 23.0998 -7.13469 7.92454
head 9.54164 -3.48677 3.76876
rclavicle -8.67198e-015 3.97569e-016
rhumerus -40.9517 17.2567 -87.0068
rradius 80.6163
rwrist 17.7619
rhand -8.54286 15.0302
rfingers 7.12502
rthumb 17.3864 -14.2122
lclavicle -8.67198e-015 3.97569e-016
lhumerus -38.8754 -17.8468 83.2506
lradius 79.2759
lwrist 8.67456
lhand -13.6568 15.1567
lfingers 7.12502
lthumb 12.46 44.7653
rfemur 4.72511 12.0271 18.2823
rtibia 9.36768
rfoot -9.38498 -13.5191
rtoes -3.39766
lfemur 9.63147 -12.71 -17.7505
ltibia 1.59028e-014
lfoot -4.8325 11.2284
ltoes -11.2252
